<?xml version="1.0" encoding="UTF-8"?>
<svg width="312px" height="43px" viewBox="0 0 312 43" version="1.1" xmlns="http://www.w3.org/2000/svg" xmlns:xlink="http://www.w3.org/1999/xlink">
    <!-- Generator: Sketch 53.2 (72643) - https://sketchapp.com -->
    <title>bridge-shape</title>
    <desc>Created with Sketch.</desc>
    <g id="Page-1" stroke="none" stroke-width="1" fill="none" fill-rule="evenodd">
        <g id="bridge-shape" fill="#68748F" fill-rule="nonzero">
            <path d="M136.187029,42.1647283 C137.85687,24.7810791 145.751253,16.0892512 159.870179,16.0892512 C173.989103,16.0892512 181.99955,24.7810791 183.901517,42.1647283 L193.278087,43 C194.705259,23.7220553 202.179221,14.0830763 215.699974,14.0830763 C229.220727,14.0830763 237.073003,23.443627 239.256802,42.1647283 L250.784612,42.1647283 C251.45289,25.8976898 257.634469,17.7641673 269.329349,17.7641673 C281.024228,17.7641673 288.709434,23.2687757 292.384968,34.2779927 L298.900686,34.2779927 C299.340729,28.0000855 300.176078,23.5430827 301.406732,20.9069975 C302.163912,19.2850971 309.572537,19.2794409 311.421813,17.7641673 C312.192729,17.1324907 312.192729,12.4604283 311.421813,3.74798687 C225.80122,0.756880487 170.549078,-0.443917636 145.665389,0.145579272 C116.663401,0.832646485 68.3353604,2.03345122 0.681265804,3.74798687 C-0.227088601,11.4767405 -0.227088601,15.5904975 0.681265804,16.0892512 C4.06332052,17.9462425 11.0828369,19.9741555 12.7102841,21.5688469 C14.993383,23.8059979 16.6640798,28.0423842 17.7223752,34.2779927 L25.2405121,34.2779927 C26.9112089,20.8147195 33.5939975,14.0830763 45.2888764,14.0830763 C56.983756,14.0830763 64.0006832,21.9882887 66.3396594,37.7987135 L79.8723048,37.9517869 C83.6088521,22.0393132 91.0145979,14.0830763 102.089542,14.0830763 C113.164486,14.0830763 121.448015,23.4756785 126.940129,42.2608763 L136.187029,42.1647283 Z" id="Path-3"></path>
        </g>
    </g>
</svg>