<?xml version="1.0" encoding="UTF-8"?>
<svg width="375px" height="52px" viewBox="0 0 375 52" version="1.1" xmlns="http://www.w3.org/2000/svg" xmlns:xlink="http://www.w3.org/1999/xlink">
    <!-- Generator: Sketch 53.2 (72643) - https://sketchapp.com -->
    <title>bridge-shape</title>
    <desc>Created with Sketch.</desc>
    <g id="Page-1" stroke="none" stroke-width="1" fill="none" fill-rule="evenodd">
        <g id="bridge-shape" fill="#68748F" fill-rule="nonzero">
            <path d="M163.686333,50.989904 C165.693354,29.9678166 175.181795,19.4567688 192.151657,19.4567688 C209.121518,19.4567688 218.749459,29.9678166 221.035477,50.989904 L232.305393,52 C234.020744,28.6871366 243.003872,17.0306969 259.254777,17.0306969 C275.505681,17.0306969 284.943513,28.3504326 287.568272,50.989904 L301.423812,50.989904 C302.227032,31.3181365 309.656814,21.4822488 323.71316,21.4822488 C337.769504,21.4822488 347.006532,28.1389846 351.42424,41.4524563 L359.255632,41.4524563 C359.78453,33.8605685 360.788555,28.4707046 362.267707,25.2828807 C363.177779,23.3215127 372.082376,23.3146727 374.305064,21.4822488 C375.231645,20.7183608 375.231645,15.068425 374.305064,4.53244924 C271.395697,0.915297333 204.986872,-0.536830629 175.078592,0.176049352 C140.220434,1.00692133 82.1338467,2.45905729 0.818829091,4.53244924 C-0.27294303,13.878849 -0.27294303,18.8536249 0.818829091,19.4567688 C4.88379871,21.7024328 13.3207174,24.1547927 15.2767838,26.0832567 C18.0208931,28.7886486 20.0289421,33.9117205 21.3009317,41.4524563 L30.337154,41.4524563 C32.345203,25.1712887 40.3774008,17.0306969 54.4337457,17.0306969 C68.4900914,17.0306969 76.9238981,26.5904887 79.7351676,45.7100722 L96.0003664,45.8951842 C100.491409,26.6521927 109.392546,17.0306969 122.703777,17.0306969 C136.015008,17.0306969 145.971172,28.3891926 152.57227,51.106176 L163.686333,50.989904 Z" id="Path-3"></path>
        </g>
    </g>
</svg>