<?xml version="1.0" encoding="UTF-8"?>
<svg width="280px" height="39px" viewBox="0 0 280 39" version="1.1" xmlns="http://www.w3.org/2000/svg" xmlns:xlink="http://www.w3.org/1999/xlink">
    <!-- Generator: Sketch 53.2 (72643) - https://sketchapp.com -->
    <title>bridge-shape-mobile</title>
    <desc>Created with Sketch.</desc>
    <g id="Page-1" stroke="none" stroke-width="1" fill="none" fill-rule="evenodd">
        <g id="bridge-shape-mobile" fill="#68748F" fill-rule="nonzero">
            <path d="M122.219129,38.242428 C123.717704,22.4758625 130.802407,14.5925766 143.473237,14.5925766 C156.144067,14.5925766 163.332929,22.4758625 165.039823,38.242428 L173.454694,39 C174.735489,21.5153525 181.442891,12.7730227 193.5769,12.7730227 C205.710909,12.7730227 212.757823,21.2628245 214.717643,38.242428 L225.063113,38.242428 C225.662851,23.4886024 231.210421,16.1116866 241.705826,16.1116866 C252.20123,16.1116866 259.098211,21.1042385 262.396766,31.0893422 L268.244205,31.0893422 C268.639116,25.3954264 269.388788,21.3530285 270.493221,18.9621605 C271.172742,17.4911345 277.821508,17.4860045 279.481115,16.1116866 C280.172962,15.5387706 280.172962,11.3013188 279.481115,3.39933693 C202.642121,0.686473 153.056865,-0.402622972 130.725349,0.132037014 C104.697924,0.755190998 61.3266056,1.84429297 0.611392388,3.39933693 C-0.203797463,10.4091368 -0.203797463,14.1402187 0.611392388,14.5925766 C3.64656971,16.2768246 9.94613567,18.1160945 11.4066652,19.5624425 C13.4556002,21.5914865 14.9549434,25.4337904 15.9046957,31.0893422 L22.6517417,31.0893422 C24.1510849,18.8784665 30.1484593,12.7730227 40.6438635,12.7730227 C51.1392683,12.7730227 57.4365106,19.9428665 59.5355918,34.2825542 L71.6802736,34.4213882 C75.0335854,19.9891445 81.6797677,12.7730227 91.6188202,12.7730227 C101.557873,12.7730227 108.991808,21.2918945 113.920628,38.329632 L122.219129,38.242428 Z" id="Path-3"></path>
        </g>
    </g>
</svg>