<?xml version="1.0" encoding="UTF-8"?>
<svg width="1163px" height="401px" viewBox="0 0 1163 401" version="1.1" xmlns="http://www.w3.org/2000/svg" xmlns:xlink="http://www.w3.org/1999/xlink">
    <!-- Generator: Sketch 53.2 (72643) - https://sketchapp.com -->
    <title>home-header-shape</title>
    <desc>Created with Sketch.</desc>
    <g id="Page-1" stroke="none" stroke-width="1" fill="none" fill-rule="evenodd">
        <g id="home-header-shape" transform="translate(-3.000000, -12.000000)" fill="#46C0B0" fill-rule="nonzero">
            <path d="M1160.15274,391.484189 L1160.45083,412.767982 C1041.79101,418.176825 957.382055,419.565689 907.223947,416.934576 C762.745046,409.355735 733.257117,397.648407 594.147734,393.637676 C455.038352,389.626944 434.988048,391.462634 264.523851,400.542375 C214.465616,403.208717 127.585813,403.981341 3.88443989,402.860247 L5.01736467,378.435419 L7.81815409,38.6623839 L6.2082353,38.6376526 L9.88254418,12.8679046 C148.462934,10.1600631 241.077326,10.0327229 287.725719,12.4858827 C422.348136,19.5654478 472.573401,24.3254394 597.56794,28.7627754 C722.562479,33.2001114 722.591272,35.3905424 893.147826,24.9557948 C1006.8522,17.9992968 1098.19613,18.7724125 1167.17963,27.2751412 L1167.76197,42.7720317 L1168.41432,42.7748023 L1168.17505,53.7646137 L1168.27742,56.4887733 L1168.1158,56.4862909 L1160.82229,391.486831 L1160.15274,391.484189 Z" id="Combined-Shape" transform="translate(586.149381, 214.481474) rotate(-1.000000) translate(-586.149381, -214.481474) "></path>
        </g>
    </g>
</svg>