<?xml version="1.0" encoding="UTF-8"?>
<svg width="1446px" height="432px" viewBox="0 0 1446 432" version="1.1" xmlns="http://www.w3.org/2000/svg" xmlns:xlink="http://www.w3.org/1999/xlink">
    <!-- Generator: Sketch 53.2 (72643) - https://sketchapp.com -->
    <title>home-header-shape</title>
    <desc>Created with Sketch.</desc>
    <g id="Page-1" stroke="none" stroke-width="1" fill="none" fill-rule="evenodd">
        <g id="home-header-shape" transform="translate(-3.000000, -15.000000)" fill="#46C0B0" fill-rule="nonzero">
            <path d="M1442.92549,424.923803 L1443.35928,447.801077 C1295.74627,453.263862 1190.73411,454.50712 1128.32281,451.530852 C948.54893,442.9578 911.827315,430.287277 738.744405,425.565199 C565.661497,420.84312 540.721609,422.756897 328.667731,432.012117 C266.39634,434.72999 158.308294,435.303592 4.40359333,433.732923 L5.74090139,407.483812 L8.22102476,42.2949198 L6.21799301,42.2635787 L10.7131537,14.5764244 C183.118063,12.0756366 298.342626,12.2125556 356.386844,14.98718 C523.896428,22.9944588 586.397582,28.2591019 741.920961,33.3979799 C897.44434,38.5368579 897.486638,40.891277 1109.65141,30.1799315 C1251.0946,23.039035 1364.7412,24.1400325 1450.59122,33.4829232 L1451.36154,50.1411182 L1452.17317,50.1460247 L1451.90798,61.9574615 L1452.04339,64.8857638 L1451.8423,64.8826179 L1443.75851,424.928623 L1442.92549,424.923803 Z" id="Combined-Shape" transform="translate(728.288381, 232.951770) rotate(-1.000000) translate(-728.288381, -232.951770) "></path>
        </g>
    </g>
</svg>