<?xml version="1.0" encoding="UTF-8"?>
<svg width="1446px" height="472px" viewBox="0 0 1446 472" version="1.1" xmlns="http://www.w3.org/2000/svg" xmlns:xlink="http://www.w3.org/1999/xlink">
    <!-- Generator: Sketch 53.2 (72643) - https://sketchapp.com -->
    <title>home-header-shape</title>
    <desc>Created with Sketch.</desc>
    <g id="Page-1" stroke="none" stroke-width="1" fill="none" fill-rule="evenodd">
        <g id="home-header-shape" transform="translate(-4.000000, -15.000000)" fill="#46C0B0" fill-rule="nonzero">
            <path d="M1443.63012,461.862651 L1444.02622,486.898638 C1296.39996,493.120275 1191.38274,494.653906 1128.97454,491.499532 C949.209624,482.413452 912.507828,468.607439 739.427721,463.724809 C566.347615,458.842178 541.403857,460.977691 329.328631,471.455912 C267.050971,474.53293 158.958872,475.338763 5.05233277,473.873411 L6.43292774,445.144395 L9.51481339,45.4805642 L7.51177567,45.449565 L12.0526835,15.1415629 C184.466671,12.1206641 299.694322,12.0806613 357.735638,15.0215531 C525.236847,23.5086622 587.731124,29.1672669 743.250509,34.5349703 C898.769894,39.9026736 898.808314,42.479261 1110.99684,30.4072859 C1252.45586,22.359303 1366.10392,23.3769797 1451.94101,33.4603152 L1452.68391,51.6896388 L1453.49555,51.6936711 L1453.21089,64.6204481 L1453.34148,67.8249352 L1453.14039,67.8218236 L1444.46315,461.866553 L1443.63012,461.862651 Z" id="Combined-Shape" transform="translate(729.273941, 252.968428) rotate(-1.000000) translate(-729.273941, -252.968428) "></path>
        </g>
    </g>
</svg>