<?xml version="1.0" encoding="UTF-8"?>
<svg width="1280px" height="479px" viewBox="0 0 1280 479" version="1.1" xmlns="http://www.w3.org/2000/svg" xmlns:xlink="http://www.w3.org/1999/xlink">
    <!-- Generator: Sketch 53.2 (72643) - https://sketchapp.com -->
    <title>home-header-shape</title>
    <desc>Created with Sketch.</desc>
    <g id="Page-1" stroke="none" stroke-width="1" fill="none" fill-rule="evenodd">
        <g id="home-header-shape" transform="translate(-4.000000, -13.000000)" fill="#46C0B0" fill-rule="nonzero">
            <path d="M1277.89661,464.698892 L1278.19059,490.087378 C1147.54942,496.730031 1054.62144,498.522335 999.40665,495.464293 C840.362128,486.655692 807.917696,472.737639 654.778741,468.176734 C501.639788,463.615828 479.563478,465.837783 291.885013,476.942565 C236.771666,480.203579 141.124527,481.264752 4.9435959,480.126086 L6.23005763,450.988433 L9.85911373,45.6762419 L8.08679529,45.6493261 L12.1732244,14.9032663 C164.740601,11.4505847 266.699906,11.1499463 318.051141,14.0013495 C466.245471,22.2302039 521.530775,27.8276312 659.130026,32.9200915 C796.729276,38.0125518 796.757457,40.6254219 984.539772,27.9041329 C1109.72798,19.423274 1210.2872,20.1988097 1286.21741,30.2307394 L1286.83362,48.7156999 L1287.55179,48.7179573 L1287.27074,61.8278431 L1287.37906,65.077268 L1287.20113,65.0745663 L1278.63371,464.700969 L1277.89661,464.698892 Z" id="Combined-Shape" transform="translate(646.247695, 254.488543) rotate(-1.000000) translate(-646.247695, -254.488543) "></path>
        </g>
    </g>
</svg>