<?xml version="1.0" encoding="UTF-8"?>
<svg width="834px" height="401px" viewBox="0 0 834 401" version="1.1" xmlns="http://www.w3.org/2000/svg" xmlns:xlink="http://www.w3.org/1999/xlink">
    <!-- Generator: Sketch 53.2 (72643) - https://sketchapp.com -->
    <title>home-header-shape</title>
    <desc>Created with Sketch.</desc>
    <g id="Page-1" stroke="none" stroke-width="1" fill="none" fill-rule="evenodd">
        <g id="home-header-shape" transform="translate(-4.000000, -7.000000)" fill="#46C0B0" fill-rule="nonzero">
            <path d="M832.683754,383.632275 L832.792218,404.912759 C747.708957,410.907682 687.196923,412.713668 651.256104,410.330719 C547.72967,403.466706 526.650303,391.906151 426.955155,388.583397 C327.260008,385.260643 312.878679,387.195286 190.643384,397.116865 C154.74797,400.03042 92.4678536,401.232434 3.80303464,400.722905 L4.7358607,376.294584 L8.42302713,36.5370205 L7.26914376,36.5202494 L10.030307,10.7345624 C109.379478,7.3419374 175.767014,6.75680567 209.192915,8.97916601 C305.656592,15.3926678 341.635026,19.9039801 431.210407,23.7230724 C520.785787,27.5421646 520.795599,29.7322643 643.103793,18.4553385 C724.642591,10.9373883 790.115001,11.2589148 839.521017,19.4199174 L839.861843,34.9125922 L840.329442,34.912138 L840.10361,45.9021839 L840.163521,48.6256024 L840.04768,48.6239191 L833.163678,383.631607 L832.683754,383.632275 Z" id="Combined-Shape" transform="translate(422.066238, 209.503593) rotate(-1.000000) translate(-422.066238, -209.503593) "></path>
        </g>
    </g>
</svg>