<?xml version="1.0" encoding="UTF-8"?>
<svg width="1992px" height="691px" viewBox="0 0 1992 691" version="1.1" xmlns="http://www.w3.org/2000/svg" xmlns:xlink="http://www.w3.org/1999/xlink">
    <!-- Generator: Sketch 54.1 (76490) - https://sketchapp.com -->
    <title>Combined Shape</title>
    <desc>Created with Sketch.</desc>
    <g id="Page-1" stroke="none" stroke-width="1" fill="none" fill-rule="evenodd">
        <path d="M1986.28987,636.323159 C1986.11206,646.920098 1986.03184,653.585944 1986.04921,656.320697 C1986.10776,665.538771 1619.55619,704.357083 1446.15202,687.903002 C1310.38927,675.020664 1166.57359,647.875659 993.506415,642.252389 C820.439237,636.629119 795.477625,639.787522 583.30392,655.907564 C489.844052,663.008241 368.715559,676.390716 235.42567,676.771218 C102.135781,677.151721 -4.70845925,668.577814 -4.27599057,657.584925 C-4.10147647,653.148965 -3.8770015,642.484129 -3.60256564,625.590419 L-3.71751357,625.589799 L6.00347682,68.674633 C5.70258641,56.7276397 5.8538406,48.062293 6.45723939,42.678593 C7.36233756,34.6030429 106.643606,15.2030407 307.863209,6.9334083 C410.85711,2.70061148 527.842358,12.1118853 614.884249,17.6737345 C782.346821,28.3743473 844.809375,35.8503338 1000.31033,42.2736308 C1155.81129,48.6969278 1155.83183,52.2983988 1368.12991,33.9497086 C1580.428,15.6010184 1635.25643,11.1002489 1715.24425,12.4964415 C1795.23206,13.892634 1996.48959,29.3100209 1996.78244,41.4143648 C1996.97767,49.4839273 1996.62863,69.4808812 1995.73529,101.405226 L1986.39826,636.323743 L1986.28987,636.323159 Z" id="Combined-Shape" fill="#46C0B0" transform="translate(996.278832, 348.895334) rotate(-1.000000) translate(-996.278832, -348.895334) "></path>
    </g>
</svg>