<?xml version="1.0" encoding="UTF-8"?>
<svg width="754px" height="592px" viewBox="0 0 754 592" version="1.1" xmlns="http://www.w3.org/2000/svg" xmlns:xlink="http://www.w3.org/1999/xlink">
    <!-- Generator: Sketch 54 (76480) - https://sketchapp.com -->
    <title>Mask Copy 3</title>
    <desc>Created with Sketch.</desc>
    <defs>
        <path d="M68.6063773,1030.94667 C79.3114974,988.966083 160.271574,999.065833 396.899085,999.065833 C547.23937,999.065833 679.973571,999.410542 795.101689,1000.09996 L795.101689,1000.09996 C804.450631,1000.15594 811.99989,1007.75054 811.999892,1017.09965 L812,1573 C812.000002,1582.38884 804.388844,1590 795.000003,1590 C795.000002,1590 795.000001,1590 795,1590 L74.9996917,1590 C65.6108519,1590 57.9996934,1582.38884 57.9996934,1573 C57.9996934,1572.99911 57.9996935,1572.99821 57.9996936,1572.99732 C58.0523065,1239.15361 61.5878678,1058.47006 68.6063773,1030.94667 Z" id="path-1"></path>
    </defs>
    <g id="Page-1" stroke="none" stroke-width="1" fill="none" fill-rule="evenodd">
        <g id="Desktop---Service" transform="translate(-58.000000, -998.000000)">
            <mask id="mask-2" fill="white">
                <use xlink:href="#path-1"></use>
            </mask>
            <use id="Mask-Copy-3" fill="#F8F8F8" xlink:href="#path-1"></use>
        </g>
    </g>
</svg>