<?xml version="1.0" encoding="UTF-8"?>
<svg width="322px" height="170px" viewBox="0 0 322 170" version="1.1" xmlns="http://www.w3.org/2000/svg" xmlns:xlink="http://www.w3.org/1999/xlink">
    <!-- Generator: Sketch 53.2 (72643) - https://sketchapp.com -->
    <title>Mask Copy 10</title>
    <desc>Created with Sketch.</desc>
    <defs>
        <path d="M489.301881,4229.46103 C493.905642,4217.4058 528.722706,4220.30607 630.484904,4220.30607 C684.263189,4220.30607 732.803002,4220.37455 776.104342,4220.51152 L776.104342,4220.51152 C794.288892,4220.56905 808.99995,4235.32671 808.999956,4253.51135 L809.000029,4343 C809.000037,4368.95738 787.957427,4390.00001 762.000044,4390.00002 C762.000029,4390.00002 762.000015,4390.00002 762,4390.00002 L517.465769,4389.99982 C501.75812,4389.99981 488.905783,4377.49395 488.476613,4361.79217 C486.263115,4280.80826 486.538204,4236.69788 489.301881,4229.46103 Z" id="path-1"></path>
    </defs>
    <g id="PL" stroke="none" stroke-width="1" fill="none" fill-rule="evenodd">
        <g id="Cards" transform="translate(-487.000000, -4220.000000)">
            <mask id="mask-2" fill="white">
                <use xlink:href="#path-1"></use>
            </mask>
            <path stroke="#38486C" d="M489.768979,4229.63941 C487.043065,4236.77738 486.767511,4280.96227 488.976427,4361.77851 C489.398197,4377.20957 502.028941,4389.49981 517.465769,4389.49982 L762.000044,4389.50002 C787.681285,4389.50001 808.500037,4368.68124 808.500029,4343 L808.499956,4253.51135 C808.499951,4235.60223 794.011786,4221.06817 776.10276,4221.01152 C732.801979,4220.87455 684.262687,4220.80607 630.484904,4220.80607 C616.441462,4220.80607 604.160616,4220.75845 586.036256,4220.65302 C537.774241,4220.37229 526.527236,4220.43375 513.716823,4221.37131 C498.515393,4222.48387 491.578405,4224.90132 489.768979,4229.63941 Z"></path>
        </g>
    </g>
</svg>