<?xml version="1.0" encoding="UTF-8"?>
<svg width="930px" height="592px" viewBox="0 0 930 592" version="1.1" xmlns="http://www.w3.org/2000/svg" xmlns:xlink="http://www.w3.org/1999/xlink">
    <!-- Generator: Sketch 53.2 (72643) - https://sketchapp.com -->
    <title>service-card-lg-shape</title>
    <desc>Created with Sketch.</desc>
    <g id="Page-1" stroke="none" stroke-width="1" fill="none" fill-rule="evenodd">
        <g id="service-card-lg-shape" fill="#F8F8F8" fill-rule="nonzero">
            <path d="M13.0825093,32.9466701 C26.2864319,-9.03391688 126.144311,1.06583312 418.005711,1.06583312 C603.438613,1.06583312 767.155797,1.41054212 909.157264,2.09996012 L909.157264,2.09996012 C920.688448,2.15594012 929.999864,9.75054012 929.999867,19.0996501 L930,575 C930.000002,584.38884 920.612238,592 909.031842,592 C909.031841,592 909.03184,592 909.031839,592 L20.9681591,592 C9.38776462,592 0,584.38884 0,575 C0,574.99911 1.23342126e-07,574.99821 2.46684253e-07,574.99732 C0.0648941155,241.15361 4.42573055,60.4700601 13.0825093,32.9466701 Z" id="path-1"></path>
        </g>
    </g>
</svg>